<mxfile host="app.diagrams.net" modified="2021-10-14T16:06:00.957Z" agent="5.0 (Windows NT 10.0; Win64; x64) AppleWebKit/537.36 (KHTML, like Gecko) Chrome/93.0.4577.82 Safari/537.36" etag="9FqQauZqEoFgI_kEC4Tl" version="15.1.4" type="github">
  <diagram id="OYvvG6MeCZHVqxVlaTMT" name="Page-1">
    <mxGraphModel dx="1328" dy="746" grid="1" gridSize="10" guides="1" tooltips="1" connect="1" arrows="1" fold="1" page="1" pageScale="1" pageWidth="827" pageHeight="1169" math="0" shadow="0">
      <root>
        <mxCell id="0" />
        <mxCell id="1" parent="0" />
        <mxCell id="EYm9HQz2ZZ1daeI3HfIJ-19" value="" style="edgeStyle=orthogonalEdgeStyle;rounded=0;orthogonalLoop=1;jettySize=auto;html=1;" edge="1" parent="1" source="EYm9HQz2ZZ1daeI3HfIJ-1" target="EYm9HQz2ZZ1daeI3HfIJ-4">
          <mxGeometry relative="1" as="geometry" />
        </mxCell>
        <mxCell id="EYm9HQz2ZZ1daeI3HfIJ-1" value="&lt;font style=&quot;font-size: 14px&quot;&gt;&lt;span style=&quot;text-align: justify&quot;&gt;installSplashScreen&lt;/span&gt;&lt;/font&gt;" style="rounded=1;whiteSpace=wrap;html=1;fillColor=#f5f5f5;strokeColor=#666666;fontColor=#333333;" vertex="1" parent="1">
          <mxGeometry x="60" y="320" width="140" height="60" as="geometry" />
        </mxCell>
        <mxCell id="EYm9HQz2ZZ1daeI3HfIJ-3" value="Impl31#install" style="rounded=1;whiteSpace=wrap;html=1;fillColor=#dae8fc;strokeColor=#6c8ebf;" vertex="1" parent="1">
          <mxGeometry x="410" y="420" width="130" height="60" as="geometry" />
        </mxCell>
        <mxCell id="EYm9HQz2ZZ1daeI3HfIJ-4" value="Android 12?" style="rhombus;whiteSpace=wrap;html=1;fillColor=#f8cecc;strokeColor=#b85450;" vertex="1" parent="1">
          <mxGeometry x="236.25" y="310" width="110" height="80" as="geometry" />
        </mxCell>
        <mxCell id="EYm9HQz2ZZ1daeI3HfIJ-6" value="Y" style="text;html=1;strokeColor=none;fillColor=none;align=center;verticalAlign=middle;whiteSpace=wrap;rounded=0;" vertex="1" parent="1">
          <mxGeometry x="330" y="420" width="40" height="20" as="geometry" />
        </mxCell>
        <mxCell id="EYm9HQz2ZZ1daeI3HfIJ-7" value="" style="endArrow=classic;html=1;entryX=0;entryY=0.5;entryDx=0;entryDy=0;exitX=0.5;exitY=0;exitDx=0;exitDy=0;" edge="1" parent="1" source="EYm9HQz2ZZ1daeI3HfIJ-4" target="EYm9HQz2ZZ1daeI3HfIJ-9">
          <mxGeometry width="50" height="50" relative="1" as="geometry">
            <mxPoint x="693.75" y="300" as="sourcePoint" />
            <mxPoint x="723.75" y="299.94" as="targetPoint" />
            <Array as="points">
              <mxPoint x="291.25" y="240" />
            </Array>
          </mxGeometry>
        </mxCell>
        <mxCell id="EYm9HQz2ZZ1daeI3HfIJ-8" value="N" style="text;html=1;strokeColor=none;fillColor=none;align=center;verticalAlign=middle;whiteSpace=wrap;rounded=0;" vertex="1" parent="1">
          <mxGeometry x="330" y="210" width="40" height="20" as="geometry" />
        </mxCell>
        <mxCell id="EYm9HQz2ZZ1daeI3HfIJ-9" value="Impl#install" style="rounded=1;whiteSpace=wrap;html=1;fillColor=#dae8fc;strokeColor=#6c8ebf;" vertex="1" parent="1">
          <mxGeometry x="410" y="210" width="130" height="60" as="geometry" />
        </mxCell>
        <mxCell id="EYm9HQz2ZZ1daeI3HfIJ-10" value="更新实际主题&lt;br&gt;PostSplashScreenTheme" style="rounded=1;whiteSpace=wrap;html=1;fillColor=#dae8fc;strokeColor=#6c8ebf;" vertex="1" parent="1">
          <mxGeometry x="600" y="320" width="185" height="60" as="geometry" />
        </mxCell>
        <mxCell id="EYm9HQz2ZZ1daeI3HfIJ-11" value="Activity#setTheme" style="rounded=1;whiteSpace=wrap;html=1;fillColor=#f5f5f5;strokeColor=#666666;fontColor=#333333;" vertex="1" parent="1">
          <mxGeometry x="838" y="320" width="125.75" height="60" as="geometry" />
        </mxCell>
        <mxCell id="EYm9HQz2ZZ1daeI3HfIJ-12" value="缓存&lt;br&gt;Background &amp;amp; Icon" style="rounded=1;whiteSpace=wrap;html=1;fillColor=#f5f5f5;strokeColor=#666666;fontColor=#333333;" vertex="1" parent="1">
          <mxGeometry x="415" y="320" width="120" height="60" as="geometry" />
        </mxCell>
        <mxCell id="EYm9HQz2ZZ1daeI3HfIJ-13" value="" style="endArrow=classic;html=1;exitX=0.5;exitY=1;exitDx=0;exitDy=0;entryX=0;entryY=0.5;entryDx=0;entryDy=0;" edge="1" parent="1" source="EYm9HQz2ZZ1daeI3HfIJ-4" target="EYm9HQz2ZZ1daeI3HfIJ-3">
          <mxGeometry width="50" height="50" relative="1" as="geometry">
            <mxPoint x="893.75" y="275" as="sourcePoint" />
            <mxPoint x="470.75" y="348" as="targetPoint" />
            <Array as="points">
              <mxPoint x="291.25" y="450" />
            </Array>
          </mxGeometry>
        </mxCell>
        <mxCell id="EYm9HQz2ZZ1daeI3HfIJ-14" value="" style="endArrow=classic;html=1;exitX=0.5;exitY=1;exitDx=0;exitDy=0;entryX=0.5;entryY=0;entryDx=0;entryDy=0;" edge="1" parent="1" source="EYm9HQz2ZZ1daeI3HfIJ-9" target="EYm9HQz2ZZ1daeI3HfIJ-12">
          <mxGeometry width="50" height="50" relative="1" as="geometry">
            <mxPoint x="564.25" y="239.5" as="sourcePoint" />
            <mxPoint x="613.75" y="239.5" as="targetPoint" />
          </mxGeometry>
        </mxCell>
        <mxCell id="EYm9HQz2ZZ1daeI3HfIJ-15" value="" style="endArrow=classic;html=1;exitX=1;exitY=0.5;exitDx=0;exitDy=0;" edge="1" parent="1" source="EYm9HQz2ZZ1daeI3HfIJ-12" target="EYm9HQz2ZZ1daeI3HfIJ-10">
          <mxGeometry width="50" height="50" relative="1" as="geometry">
            <mxPoint x="947.8299999999999" y="370" as="sourcePoint" />
            <mxPoint x="947.8299999999999" y="420" as="targetPoint" />
          </mxGeometry>
        </mxCell>
        <mxCell id="EYm9HQz2ZZ1daeI3HfIJ-17" value="" style="endArrow=classic;html=1;" edge="1" parent="1" target="EYm9HQz2ZZ1daeI3HfIJ-11">
          <mxGeometry width="50" height="50" relative="1" as="geometry">
            <mxPoint x="783" y="350" as="sourcePoint" />
            <mxPoint x="854.5" y="349.5" as="targetPoint" />
          </mxGeometry>
        </mxCell>
        <mxCell id="EYm9HQz2ZZ1daeI3HfIJ-18" value="" style="endArrow=classic;html=1;exitX=1;exitY=0.5;exitDx=0;exitDy=0;entryX=0.5;entryY=1;entryDx=0;entryDy=0;" edge="1" parent="1" source="EYm9HQz2ZZ1daeI3HfIJ-3" target="EYm9HQz2ZZ1daeI3HfIJ-10">
          <mxGeometry width="50" height="50" relative="1" as="geometry">
            <mxPoint x="635.75" y="420" as="sourcePoint" />
            <mxPoint x="799.25" y="480" as="targetPoint" />
            <Array as="points">
              <mxPoint x="693" y="450" />
            </Array>
          </mxGeometry>
        </mxCell>
      </root>
    </mxGraphModel>
  </diagram>
</mxfile>
